<svg width="330" height="109" viewBox="0 0 330 109" fill="none" xmlns="http://www.w3.org/2000/svg">
<path fill-rule="evenodd" clip-rule="evenodd" d="M13.5942 17.7957L12.0557 20.4081L9.13821 21.1547L10.6754 18.5418L8.40949 19.1192L6.86971 21.7328L4.0177 22.4609L2.7956 24.538L5.6489 23.8093L4.07475 26.4819L1.22275 27.2106L0 29.2852L2.85265 28.5565L1.31417 31.1688L3.58073 30.5907L5.11921 27.9784L8.03735 27.2324L6.49821 29.8453L8.76477 29.2679L10.3033 26.6536L13.1553 25.9256L14.378 23.8491L11.5254 24.5784L13.0995 21.9058L15.9535 21.1784L17.1749 19.1019L14.3216 19.83L15.8607 17.2177L13.5942 17.7957ZM7.91416 23.2299L10.8329 22.4846L9.2601 25.1578L6.34067 25.9025L7.91416 23.2299Z" fill="#EA262C"/>
<path fill-rule="evenodd" clip-rule="evenodd" d="M34.8967 18.4155C37.3293 14.3355 39.5012 11.3842 39.5122 10.7785C39.4798 10.5561 39.2367 10.3043 38.3802 10.7862C37.8006 11.1823 23.9432 18.9353 17.5286 21.1374C16.2631 21.5534 16.324 22.3397 16.348 22.5641C16.4044 23.0646 16.9678 23.6235 18.0603 23.3735C18.9076 23.2851 21.7279 22.1609 22.8287 23.4171C23.7857 24.5086 22.0332 27.6291 20.7839 30.7138C18.8584 35.0104 17.3789 39.4659 12.5825 42.0596C12.0904 42.2788 9.86278 43.5561 10.1318 44.7899C10.3549 45.5102 11.3792 45.1417 11.7799 45.0097C11.7799 45.0097 28.2948 39.6857 33.4957 38.834C34.0818 38.7443 35.6786 38.295 35.2702 37.3663C34.6193 34.7912 27.78 39.1249 28.4822 32.5871C28.9386 29.1711 32.0584 23.1787 34.8967 18.4155" fill="#EA262C"/>
<path fill-rule="evenodd" clip-rule="evenodd" d="M116.759 18.1302C94.161 18.0353 63.7407 27.868 57.5738 25.937C49.1786 23.4471 56.5397 11.12 70.2551 8.04302C70.7712 7.95457 71.4623 8.49741 70.8795 9.43569C69.481 11.3052 71.2425 11.4533 71.6652 11.3616C73.961 10.8662 78.6354 7.8642 78.2114 5.71334C77.0159 -1.35067 37.5028 10.7989 41.1062 27.438C45.8747 48.5198 101.886 7.78793 141.977 33.2131C141.977 33.2131 174.123 30.5489 185.434 32.2588C171.033 25.2903 139.708 17.795 116.759 18.1302" fill="#EA262C"/>
<mask id="mask0_0_3895" style="mask-type:luminance" maskUnits="userSpaceOnUse" x="68" y="0" width="106" height="23">
<path fill-rule="evenodd" clip-rule="evenodd" d="M68.9541 0.640869H173.171V22.442H68.9541V0.640869Z" fill="white"/>
</mask>
<g mask="url(#mask0_0_3895)">
<path fill-rule="evenodd" clip-rule="evenodd" d="M78.7276 13.1113C78.4287 13.3394 77.5613 14.6949 79.022 15.8268C78.7756 16.2017 75.2364 20.0317 73.8223 19.1031C72.9717 18.5448 74.5906 15.1064 78.7276 13.1113M139.702 11.5956C140.424 11.2123 143.592 9.73309 144.614 11.0905C144.926 11.659 143.754 12.6575 141.753 13.4554C140.086 14.1438 137.626 14.8699 137.112 14.2713C136.848 13.8707 137.432 12.9004 139.702 11.5956M70.4705 21.7923C72.0556 22.8517 77.9496 22.9542 82.9392 16.3805C83.3885 16.3805 85.231 15.3025 85.9338 15.1211C85.5474 15.8845 84.6482 18.83 88.8973 19.0851C91.9646 19.2748 98.9665 15.8864 100.514 14.2156C100.514 14.2156 98.6955 16.6926 98.621 17.6892C98.621 17.6892 103.133 16.7606 103.411 16.7619C103.927 15.9985 106.361 11.2642 110.675 10.756C112.438 10.6118 106.28 14.9558 108.885 16.4427C113.52 18.607 123.949 10.1426 125.044 10.1426C125.496 10.2702 126.205 11.4405 125.24 12.0974C124.649 12.5672 122.887 13.4099 122.343 15.0814C121.678 16.8715 123.448 18.4494 132.509 15.4948C132.77 16.2517 134.766 20.2625 141.527 15.8063C141.689 16.2895 138.747 20.7053 149.352 16.7106C149.352 16.7106 147.565 18.2109 147.058 18.8884L151.406 19.5652C153.372 17.4758 156.299 14.9596 159.53 15.523C162.894 16.2876 151.787 19.3299 158.464 21.7731C161.326 22.8197 169.765 22.5454 173.171 21.591C172.277 21.5186 159.236 21.0168 161.847 18.6314C162.619 17.82 165.859 16.7926 166.891 15.6723C168.003 14.3604 166.676 12.696 158.865 13.8945C158.865 13.8945 158.918 13.8637 159.012 13.8086C159.792 13.417 161.934 11.8397 162.01 11.766C161.927 11.7455 161.501 11.7199 161.098 11.709C161.098 11.709 156.551 11.4417 155.645 11.7577C155.186 12.3313 151.272 14.6693 147.095 15.1474C146.757 15.2186 146.431 14.9084 147.013 14.2399C148.45 12.6396 151.031 11.2322 151.706 10.3983C151.803 10.1349 150.766 9.46712 149.291 9.6094C149.291 9.6094 148.23 9.75296 147.746 10.1106C148.048 8.89351 143.896 5.88704 136.073 10.183C135.495 10.4688 133.309 12.1397 132.777 13.285C132.392 13.499 128.65 15.1949 127.902 14.3835C127.491 13.8342 128.6 13.3567 128.939 13.1895C129.277 13.0222 132.668 12.1634 131.184 10.4214C130.811 9.98433 129.513 9.53249 129.047 8.96593C128.687 8.52371 128.941 7.98856 129.723 7.58159C130.763 7.15154 131.197 6.02868 129.893 5.79091C124.533 4.55012 118.111 12.8312 114.273 13.285C113.886 13.3093 113.041 13.3567 113.947 12.4024C114.901 11.3975 119.632 7.65337 116.204 7.22332C115.336 7.0804 112.316 7.60466 109.493 8.82237C109.493 8.82237 114.128 3.80988 120.005 0.640625C120.005 0.640625 114.386 1.09631 111.462 2.13585C109.87 3.09976 107.075 5.38137 103.252 9.79398C102.535 10.5291 97.1992 15.2211 91.5561 15.4749C90.4267 15.4237 89.8374 14.5366 92.1973 12.4063C93.3254 11.4174 95.3391 10.1285 96.1087 10.3721C96.5411 10.5317 96.134 11.0309 95.852 11.418C95.4357 11.8679 95.7683 12.4582 96.5068 12.2089C97.7179 11.7545 99.4846 10.7175 100.171 9.17999C101.124 7.05092 92.8502 6.27222 87.9566 11.7769C87.9566 11.7769 85.2965 13.4433 84.3473 13.4945C85.0145 12.9113 85.2064 10.9796 83.1188 10.3208C81.9595 9.93882 77.7234 9.06079 71.736 14.5341C66.3283 19.4357 70.4705 21.7923 70.4705 21.7923" fill="#EA262C"/>
</g>
<path fill-rule="evenodd" clip-rule="evenodd" d="M39.3283 40.1055H58.4158L57.1775 48.8153H49.5375L48.3641 57.065H55.5151L54.3378 65.3454H47.186L45.8259 74.9141H54.2289L52.9912 83.6233H33.1406L39.3283 40.1055Z" fill="#EA262C"/>
<path fill-rule="evenodd" clip-rule="evenodd" d="M88.0651 40.1055L81.3044 59.3505L83.9178 83.6233H73.3143C72.6628 79.2844 72.2524 73.9989 72.0871 67.7636C71.407 70.5233 70.5875 73.4464 69.6338 76.5266L67.5487 83.6233H56.3994L64.0115 59.3505L62.5864 40.1055H73.6534C73.6852 41.304 73.7967 43.2997 73.9944 46.0973C74.1721 48.2276 74.2836 50.1913 74.3309 51.9839L78.4653 40.1055H88.0651Z" fill="#EA262C"/>
<path fill-rule="evenodd" clip-rule="evenodd" d="M151.34 40.1055H170.428L169.19 48.8153H161.549L160.376 57.065H167.527L166.35 65.3454H159.199L157.838 74.9141H166.242L165.003 83.6233H145.153L151.34 40.1055Z" fill="#EA262C"/>
<path fill-rule="evenodd" clip-rule="evenodd" d="M197.417 53.2765H186.787L187.246 50.0509C187.461 48.5447 187.461 47.586 187.246 47.1745C187.032 46.7618 186.608 46.5554 185.973 46.5554C185.284 46.5554 184.724 46.8342 184.291 47.3892C183.861 47.9468 183.565 48.7902 183.404 49.9188C183.198 51.3698 183.238 52.4651 183.533 53.2009C183.806 53.936 184.759 54.8211 186.389 55.8606C191.059 58.8517 193.921 61.3051 194.974 63.2227C196.022 65.139 196.246 68.23 195.638 72.4946C195.197 75.5959 194.504 77.882 193.562 79.3503C192.618 80.8199 191.027 82.0504 188.783 83.0451C186.536 84.0391 184.022 84.5384 181.227 84.5384C178.164 84.5384 175.63 83.9648 173.627 82.8169C171.624 81.6717 170.413 80.211 169.994 78.4364C169.576 76.6637 169.598 74.1443 170.062 70.8821L170.467 68.0333H181.101L180.347 73.3271C180.116 74.9595 180.116 76.0093 180.349 76.4733C180.581 76.9399 181.078 77.1725 181.837 77.1725C182.6 77.1725 183.21 76.8764 183.664 76.2849C184.121 75.694 184.432 74.8166 184.599 73.6514C184.962 71.0904 184.844 69.4138 184.252 68.6248C183.636 67.8372 182.038 66.5182 179.455 64.6724C176.876 62.8106 175.182 61.4576 174.378 60.6148C173.575 59.7721 172.972 58.6069 172.578 57.12C172.18 55.6344 172.146 53.7328 172.475 51.4224C172.949 48.0878 173.727 45.6511 174.806 44.1091C175.887 42.5696 177.448 41.3635 179.496 40.4963C181.538 39.626 183.923 39.1908 186.641 39.1908C189.613 39.1908 192.079 39.6676 194.038 40.6155C195.997 41.5653 197.214 42.7619 197.688 44.2052C198.163 45.6479 198.155 48.0987 197.663 51.5563L197.417 53.2765Z" fill="#EA262C"/>
<path fill-rule="evenodd" clip-rule="evenodd" d="M225.549 53.2765H214.919L215.374 50.0509C215.592 48.5447 215.592 47.586 215.378 47.1745C215.162 46.7618 214.74 46.5554 214.104 46.5554C213.415 46.5554 212.856 46.8342 212.423 47.3892C211.99 47.9468 211.693 48.7902 211.535 49.9188C211.326 51.3698 211.369 52.4651 211.664 53.2009C211.938 53.936 212.889 54.8211 214.518 55.8606C219.191 58.8517 222.05 61.3051 223.103 63.2227C224.151 65.139 224.375 68.23 223.768 72.4946C223.328 75.5959 222.635 77.882 221.693 79.3503C220.75 80.8199 219.157 82.0504 216.914 83.0451C214.665 84.0391 212.149 84.5384 209.358 84.5384C206.294 84.5384 203.762 83.9648 201.758 82.8169C199.755 81.6717 198.543 80.211 198.125 78.4364C197.707 76.6637 197.728 74.1443 198.194 70.8821L198.598 68.0333H209.229L208.477 73.3271C208.247 74.9595 208.247 76.0093 208.479 76.4733C208.71 76.9399 209.208 77.1725 209.969 77.1725C210.731 77.1725 211.339 76.8764 211.794 76.2849C212.25 75.694 212.562 74.8166 212.729 73.6514C213.092 71.0904 212.976 69.4138 212.382 68.6248C211.768 67.8372 210.168 66.5182 207.587 64.6724C205.006 62.8106 203.313 61.4576 202.508 60.6148C201.704 59.7721 201.103 58.6069 200.707 57.12C200.311 55.6344 200.277 53.7328 200.607 51.4224C201.079 48.0878 201.857 45.6511 202.937 44.1091C204.017 42.5696 205.577 41.3635 207.627 40.4963C209.67 39.626 212.053 39.1908 214.77 39.1908C217.745 39.1908 220.209 39.6676 222.169 40.6155C224.128 41.5653 225.345 42.7619 225.818 44.2052C226.294 45.6479 226.286 48.0987 225.794 51.5563L225.549 53.2765Z" fill="#EA262C"/>
<path fill-rule="evenodd" clip-rule="evenodd" d="M275.619 40.1055L264.334 83.6233H250.043C249.683 76.9381 249.61 69.3312 249.821 60.8027C248.843 64.4578 246.7 72.0666 243.383 83.6233H229.173L230.235 40.1055H241.356L240.408 55.2884L239.49 69.9702C240.991 62.371 243.461 52.4172 246.902 40.1055H258.787C258.766 41.3777 258.503 46.162 257.997 54.4585L256.907 71.0161C259.056 60.4829 261.585 50.1785 264.497 40.1055H275.619Z" fill="#4D4D4D"/>
<mask id="mask1_0_3895" style="mask-type:luminance" maskUnits="userSpaceOnUse" x="302" y="40" width="28" height="44">
<path fill-rule="evenodd" clip-rule="evenodd" d="M302.602 40.1055H329.603V83.6233H302.602V40.1055Z" fill="white"/>
</mask>
<g mask="url(#mask1_0_3895)">
<path fill-rule="evenodd" clip-rule="evenodd" d="M329.603 40.1055L317.308 67.8732L315.07 83.6233H304.464L306.704 67.8732L302.602 40.1055H313.119C313.553 48.5993 313.669 54.3162 313.462 57.2553C314.755 52.6107 316.63 46.8939 319.085 40.1055H329.603Z" fill="#4D4D4D"/>
</g>
<path fill-rule="evenodd" clip-rule="evenodd" d="M288.434 48.4272L289.805 48.4464L289.217 63.7293L285.248 63.7095L288.434 48.4272ZM283.911 70.1249L288.97 70.1454L288.914 83.6236H300.598L297.867 40.1057H281.809L269.97 83.6236H281.099L283.911 70.1249Z" fill="#4D4D4D"/>
<path fill-rule="evenodd" clip-rule="evenodd" d="M103.28 47.5497L101.705 58.6251C102.031 58.643 102.309 58.6449 102.545 58.6513C103.936 58.6866 104.634 58.4238 105.114 57.915C105.595 57.4009 105.95 56.3403 106.18 54.7271L106.688 51.1534C106.9 49.6646 106.833 48.6661 106.393 48.2489C105.705 47.5945 104.767 47.5497 103.28 47.5497V47.5497ZM92.8918 40.1056H104.42C107.538 40.1056 109.903 40.3472 111.509 40.8324C113.118 41.3143 114.279 42.0123 114.99 42.9281C115.704 43.8401 116.119 44.947 116.234 46.248C116.346 47.5465 116.21 49.5576 115.823 52.2802L115.285 56.0724C114.89 58.8494 114.312 60.8734 113.55 62.1455C112.79 63.4203 111.584 64.3964 109.94 65.0764C108.291 65.7583 106.218 66.0967 103.716 66.0967H100.644L98.1523 83.6234H86.7041L92.8918 40.1056Z" fill="#EA262C"/>
<path fill-rule="evenodd" clip-rule="evenodd" d="M131.179 47.5497L129.804 57.2279C131.319 57.2382 132.143 57.1395 132.795 56.6966C133.427 56.2659 133.862 55.1674 134.136 53.2505L134.475 50.858C134.671 49.4781 134.533 48.5821 134.094 48.1527C133.656 47.7214 132.501 47.5497 131.179 47.5497V47.5497ZM120.791 40.1056H128.893C134.295 40.1056 137.923 40.312 139.778 40.7234C141.629 41.1349 143.04 42.186 144.005 43.8811C144.971 45.575 145.188 48.2745 144.659 51.9841C144.179 55.3738 143.43 57.649 142.413 58.8135C141.394 59.9787 139.619 60.6772 137.084 60.9092C139.271 61.4655 140.688 62.209 141.335 63.1409C141.982 64.0727 142.344 64.9283 142.425 65.709C142.503 66.487 142.293 68.6334 141.795 72.1462L140.163 83.6234H129.531L131.587 69.1641C131.917 66.8325 131.937 65.3898 131.646 64.8348C131.352 64.2797 130.416 64.0003 128.84 64.0003L126.051 83.6234H114.604L120.791 40.1056Z" fill="#EA262C"/>
<path fill-rule="evenodd" clip-rule="evenodd" d="M191.88 96.9951C191.88 94.559 190.425 93.2055 188.269 93.2055C184.538 93.2055 182.98 97.604 182.98 100.091C182.98 100.819 183.083 101.952 183.853 102.798C184.52 103.543 185.513 103.864 186.523 103.864C189.381 103.864 191.092 101.394 191.691 98.6025C191.811 98.0609 191.88 97.5194 191.88 96.9951M190.939 102.781C189.484 104.423 187.687 104.761 186.506 104.761C184.059 104.761 181.782 103.339 181.782 100.108C181.782 97.2322 183.545 92.3088 188.302 92.3088C190.973 92.3088 193.027 93.8656 193.027 96.9784C193.027 97.7732 192.906 98.5685 192.684 99.3466C192.342 100.599 191.794 101.817 190.939 102.781" fill="#4D4D4D"/>
<path fill-rule="evenodd" clip-rule="evenodd" d="M200.609 104.406L200.489 104.507L199.462 104.541L199.394 104.439L200.147 101.293L200.575 99.2789C200.747 98.5009 200.781 98.2304 200.781 97.9593C200.781 97.0121 200.164 96.5384 199.189 96.5384C197.786 96.5384 196.947 97.2152 196.296 97.7055C195.646 100.599 195.509 101.259 194.893 104.406L194.757 104.507L193.781 104.557L193.695 104.439L194.38 101.546L194.688 100.193C195.133 98.2131 195.236 97.7228 195.492 96.0308L195.612 95.9123L196.673 95.7431L196.741 95.845L196.502 96.6737C197.187 96.2167 198.059 95.6245 199.445 95.6245C200.866 95.6245 201.859 96.3526 201.859 97.7561C201.859 98.5175 201.516 100.04 201.328 100.954L201.055 102.121L200.609 104.406Z" fill="#4D4D4D"/>
<path fill-rule="evenodd" clip-rule="evenodd" d="M205.692 98.0948C205.007 101.225 204.854 101.986 204.391 104.406L204.255 104.507L203.279 104.524L203.193 104.439L203.912 101.208L204.871 96.9444C205.504 94.2206 205.624 93.5438 205.966 91.3276L206.086 91.209C206.548 91.1757 206.685 91.1584 207.164 91.0398L207.267 91.1417L206.377 95.0326L205.692 98.0948Z" fill="#4D4D4D"/>
<path fill-rule="evenodd" clip-rule="evenodd" d="M211.203 92.8504L211.066 92.9856L209.971 93.1042L209.868 92.969L210.125 91.9371L210.279 91.8012L211.34 91.666L211.477 91.7679L211.203 92.8504ZM208.619 104.406L208.499 104.507L207.489 104.524L207.387 104.423C207.849 102.612 208.02 101.851 208.431 99.9561L208.687 98.755C208.962 97.52 209.047 97.1816 209.218 96.0312L209.338 95.9126L210.381 95.7774L210.484 95.8787C210.074 97.4181 209.953 97.8244 209.492 100.058L209.047 102.138L208.619 104.406Z" fill="#4D4D4D"/>
<path fill-rule="evenodd" clip-rule="evenodd" d="M218.546 104.406L218.426 104.507L217.399 104.541L217.331 104.439L218.084 101.293L218.511 99.2789C218.683 98.5009 218.717 98.2304 218.717 97.9593C218.717 97.0121 218.101 96.5384 217.126 96.5384C215.722 96.5384 214.884 97.2152 214.233 97.7055C213.583 100.599 213.446 101.259 212.83 104.406L212.693 104.507L211.717 104.557L211.632 104.439L212.316 101.546L212.624 100.193C213.069 98.2131 213.172 97.7228 213.428 96.0308L213.548 95.9123L214.61 95.7431L214.678 95.845L214.438 96.6737C215.123 96.2167 215.996 95.6245 217.382 95.6245C218.802 95.6245 219.796 96.3526 219.796 97.7561C219.796 98.5175 219.453 100.04 219.265 100.954L218.991 102.121L218.546 104.406Z" fill="#4D4D4D"/>
<path fill-rule="evenodd" clip-rule="evenodd" d="M228.199 99.2456C228.25 98.9579 228.301 98.6868 228.301 98.3996C228.301 97.6556 227.908 96.4878 226.162 96.4878C225.427 96.4878 224.451 96.7077 223.612 97.7395C223.185 98.2471 223.013 98.6868 222.808 99.2456H228.199ZM227.873 103.865L227.788 103.983C227.086 104.355 226.418 104.71 225.084 104.71C222.654 104.71 221.404 103.306 221.404 101.191C221.404 98.8053 222.825 95.6418 226.213 95.6418C227.702 95.6418 229.328 96.302 229.328 98.6028C229.328 99.161 229.243 99.5501 229.123 100.041L229.02 100.126C227.839 100.108 226.642 100.092 225.46 100.092C224.433 100.092 223.594 100.108 222.567 100.126C222.516 100.514 222.465 100.819 222.465 101.174C222.465 102.866 223.526 103.779 225.272 103.779C226.607 103.779 227.377 103.221 228.096 102.68L228.233 102.748L227.873 103.865Z" fill="#4D4D4D"/>
<path fill-rule="evenodd" clip-rule="evenodd" d="M243.226 103.915L243.106 104.05C242.182 104.541 241.189 104.761 240.06 104.761C237.099 104.761 235.097 102.984 235.097 99.7529C235.097 96.8092 237.031 92.3088 242.028 92.3088C243.825 92.3088 244.698 92.8504 245.382 93.2734L245.434 93.4086L245.108 94.3052L244.955 94.3392C244.767 94.17 244.561 94.0008 244.339 93.8656C243.671 93.4426 242.729 93.2561 241.994 93.2561C238.297 93.2561 236.226 96.8259 236.226 99.8035C236.226 101.919 237.527 103.796 240.196 103.796C241.943 103.796 243.021 102.95 243.5 102.561L243.62 102.629L243.226 103.915Z" fill="#4D4D4D"/>
<path fill-rule="evenodd" clip-rule="evenodd" d="M252.007 96.6907C251.716 96.6741 251.408 96.6568 251.1 96.6568C249.44 96.6568 247.883 97.1137 246.873 98.4167C246.257 99.1947 245.846 100.396 245.846 101.31C245.846 102.629 246.565 103.762 248.105 103.762C249.697 103.762 250.655 102.713 250.672 102.697L252.007 96.6907ZM252.469 99.296C251.887 101.885 251.784 102.409 251.459 104.406L251.34 104.524L250.416 104.541L250.33 104.423L250.45 103.796C250.039 104.084 249.268 104.66 247.934 104.66C246.171 104.66 244.768 103.492 244.768 101.343C244.768 99.9895 245.418 97.8578 247.215 96.7414C248.687 95.8108 250.193 95.8108 251.203 95.8108L253.154 95.8448L253.222 95.9633L252.469 99.296Z" fill="#4D4D4D"/>
<path fill-rule="evenodd" clip-rule="evenodd" d="M255.122 104.389L255.003 104.507L253.976 104.524L253.891 104.423L254.507 101.953L254.899 100.261C255.003 99.7697 255.106 99.2961 255.225 98.8224C255.533 97.4182 255.55 97.3163 255.738 96.0307L255.858 95.9294L256.919 95.7602L257.005 95.8615L256.697 97.0625C257.176 96.403 257.758 95.6077 258.905 95.6077C259.316 95.6077 259.453 95.6756 259.658 95.7942L259.709 95.9461L259.401 96.8433L259.23 96.894C259.007 96.7921 258.837 96.7248 258.579 96.7248C258.408 96.7248 257.587 96.7414 256.902 97.7566C256.389 98.484 256.081 99.8716 255.807 101.073L255.448 102.731L255.122 104.389Z" fill="#4D4D4D"/>
<path fill-rule="evenodd" clip-rule="evenodd" d="M266.196 97.8921L266.76 97.9088C268.232 97.8921 269.858 97.8921 270.868 97.0122C271.723 96.2508 271.775 95.3542 271.775 95.0837C271.775 94.2884 271.381 93.7974 270.696 93.5443C270.217 93.3578 269.773 93.3578 268.215 93.3751L267.24 93.4084L266.777 95.3708L266.196 97.8921ZM265.477 101.09C265.134 102.511 265.083 102.816 264.946 103.577H265.785C267.616 103.594 269.379 103.594 270.354 102.646C270.816 102.189 271.125 101.445 271.125 100.717C271.125 99.3976 270.149 99.0932 269.841 98.9919C269.208 98.7888 268.506 98.7721 266.795 98.7888L265.99 98.8054L265.477 101.09ZM268.25 92.5118C268.677 92.5118 269.105 92.4951 269.533 92.4951C270.217 92.4951 271.364 92.4951 272.083 93.0873C272.408 93.3411 272.922 93.9666 272.922 94.9312C272.922 95.7945 272.562 97.2493 271.056 97.9428C270.714 98.078 270.388 98.1626 270.046 98.2305C270.183 98.2472 270.303 98.2645 270.44 98.2812C271.159 98.4337 272.288 99.1438 272.288 100.683C272.288 102.359 271.279 103.356 270.423 103.831C269.259 104.474 267.667 104.49 265.391 104.507H264.707L263.663 104.524L263.577 104.406L264.142 102.121L264.672 99.7194C265.494 96.2002 265.699 95.2529 266.196 92.6643L266.333 92.5631L267.343 92.5291L268.25 92.5118Z" fill="#4D4D4D"/>
<path fill-rule="evenodd" clip-rule="evenodd" d="M281.138 101.766C280.847 103.137 280.796 103.408 280.641 104.389L280.522 104.49L279.529 104.557L279.46 104.44L279.666 103.644C279.187 103.983 278.245 104.659 276.842 104.659C275.456 104.659 274.326 103.949 274.326 102.325C274.326 101.631 274.48 100.954 274.772 99.6687L275.164 97.9934L275.592 95.9463L275.712 95.8451L276.756 95.7944L276.825 95.8957C276.466 97.2999 276.14 98.5183 275.815 99.9898C275.729 100.379 275.456 101.547 275.456 102.172C275.456 103.205 276.157 103.745 277.099 103.745C278.468 103.745 279.272 103.052 279.906 102.511L280.487 99.9052C280.915 97.9934 281.018 97.5197 281.291 95.963L281.429 95.8451L282.421 95.7944L282.49 95.9124L281.565 99.8039L281.138 101.766Z" fill="#4D4D4D"/>
<path fill-rule="evenodd" clip-rule="evenodd" d="M291.39 95.9632C290.809 96.8771 290.535 97.3168 290.227 97.8071C289.713 98.6364 288.892 100.007 288.378 100.836L286.479 103.965C285.605 105.455 284.596 107.112 283.928 108.466L283.774 108.584L282.662 108.568L282.594 108.449C283.5 107.062 284.459 105.59 285.229 104.253L284.818 101.428L284.356 98.5351L283.894 95.9465L283.997 95.828L284.989 95.7773L285.126 95.8446L285.468 98.6531L286.051 102.934L287.95 99.7189C288.686 98.4505 289.422 97.1982 290.107 95.9126L290.243 95.828H291.322L291.39 95.9632Z" fill="#4D4D4D"/>
<path fill-rule="evenodd" clip-rule="evenodd" d="M295.172 92.8504L295.035 92.9856L293.94 93.1042L293.837 92.969L294.094 91.9371L294.248 91.8012L295.309 91.666L295.446 91.7679L295.172 92.8504ZM292.588 104.406L292.468 104.507L291.458 104.524L291.355 104.423C291.818 102.612 291.989 101.851 292.4 99.9561L292.656 98.755C292.93 97.52 293.016 97.1816 293.186 96.0312L293.306 95.9126L294.35 95.7774L294.453 95.8787C294.043 97.4181 293.922 97.8244 293.461 100.058L293.016 102.138L292.588 104.406Z" fill="#4D4D4D"/>
<path fill-rule="evenodd" clip-rule="evenodd" d="M302.515 104.406L302.395 104.507L301.368 104.541L301.3 104.439L302.053 101.293L302.481 99.2789C302.653 98.5009 302.687 98.2304 302.687 97.9593C302.687 97.0121 302.071 96.5384 301.096 96.5384C299.692 96.5384 298.854 97.2152 298.203 97.7055C297.552 100.599 297.416 101.259 296.8 104.406L296.663 104.507L295.687 104.557L295.602 104.439L296.286 101.546L296.594 100.193C297.039 98.2131 297.142 97.7228 297.398 96.0308L297.518 95.9123L298.579 95.7431L298.647 95.845L298.408 96.6737C299.093 96.2167 299.965 95.6245 301.352 95.6245C302.772 95.6245 303.765 96.3526 303.765 97.7561C303.765 98.5175 303.422 100.04 303.234 100.954L302.961 102.121L302.515 104.406Z" fill="#4D4D4D"/>
<mask id="mask2_0_3895" style="mask-type:luminance" maskUnits="userSpaceOnUse" x="304" y="95" width="10" height="14">
<path fill-rule="evenodd" clip-rule="evenodd" d="M304.159 95.8113H313.777V108.821H304.159V95.8113Z" fill="white"/>
</mask>
<g mask="url(#mask2_0_3895)">
<path fill-rule="evenodd" clip-rule="evenodd" d="M311.981 96.7246C310.611 96.7412 309.191 96.7585 307.993 97.6552C307.12 98.3146 306.23 99.8041 306.23 101.344C306.23 103.374 307.753 103.78 308.557 103.78C309.157 103.78 309.892 103.576 310.491 103.238C310.645 103.153 311.125 102.815 311.142 102.748L312.494 96.7412L311.981 96.7246ZM313.777 95.9292C313.196 98.2473 313.042 98.9581 312.46 101.631L311.964 103.864C311.638 105.353 311.433 106.182 311.107 106.842C310.886 107.281 310.115 108.822 307.565 108.822C305.443 108.822 304.621 107.89 304.159 107.383L304.176 107.248L304.776 106.689L304.895 106.707C305.169 107.011 305.392 107.265 305.922 107.535C306.47 107.806 307.069 107.942 307.668 107.942C308.266 107.942 308.849 107.772 309.328 107.417C310.2 106.774 310.44 105.759 310.645 104.93L310.919 103.83C310.44 104.169 309.652 104.676 308.301 104.676C306.641 104.676 305.134 103.628 305.134 101.377C305.134 99.8041 305.939 97.9089 307.479 96.8431C308.832 95.9125 310.406 95.8446 311.792 95.8113H313.726L313.777 95.9292Z" fill="#4D4D4D"/>
</g>
</svg>
