<svg width="80" height="80" viewBox="0 0 80 80" fill="none" xmlns="http://www.w3.org/2000/svg">
<path d="M48.25 48.6C48.25 53.2391 44.5563 57 40 57C35.4437 57 31.75 53.2391 31.75 48.6C31.75 43.9608 35.4437 40.2 40 40.2C44.5563 40.2 48.25 43.9608 48.25 48.6Z" fill="black"/>
<path d="M5.36216 15.0561L5.1909 16.0546L6.08764 15.5831L8.5 14.3149L10.9124 15.5831L11.8091 16.0546L11.6378 15.0561L11.1771 12.3698L13.1288 10.4675L13.8542 9.7603L12.8517 9.61462L10.1545 9.22271L8.94837 6.77872L8.5 5.87022L8.05163 6.77872L6.84545 9.22271L4.14835 9.61462L3.14577 9.7603L3.87124 10.4675L5.82288 12.3698L5.36216 15.0561Z" stroke="black"/>
<path d="M21.3622 15.0561L21.1909 16.0546L22.0876 15.5831L24.5 14.3149L26.9124 15.5831L27.8091 16.0546L27.6378 15.0561L27.1771 12.3698L29.1288 10.4675L29.8542 9.7603L28.8517 9.61462L26.1545 9.22271L24.9484 6.77872L24.5 5.87022L24.0516 6.77872L22.8455 9.22271L20.1483 9.61462L19.1458 9.7603L19.8712 10.4675L21.8229 12.3698L21.3622 15.0561Z" stroke="black"/>
<path d="M37.3622 15.0561L37.1909 16.0546L38.0876 15.5831L40.5 14.3149L42.9124 15.5831L43.8091 16.0546L43.6378 15.0561L43.1771 12.3698L45.1288 10.4675L45.8542 9.7603L44.8517 9.61462L42.1545 9.22271L40.9484 6.77872L40.5 5.87022L40.0516 6.77872L38.8455 9.22271L36.1483 9.61462L35.1458 9.7603L35.8712 10.4675L37.8229 12.3698L37.3622 15.0561Z" stroke="black"/>
<path d="M52.3622 15.0561L52.1909 16.0546L53.0876 15.5831L55.5 14.3149L57.9124 15.5831L58.8091 16.0546L58.6378 15.0561L58.1771 12.3698L60.1288 10.4675L60.8542 9.7603L59.8517 9.61462L57.1545 9.22271L55.9484 6.77872L55.5 5.87022L55.0516 6.77872L53.8455 9.22271L51.1483 9.61462L50.1458 9.7603L50.8712 10.4675L52.8229 12.3698L52.3622 15.0561Z" stroke="black"/>
<path d="M68.3622 15.0561L68.1909 16.0546L69.0876 15.5831L71.5 14.3149L73.9124 15.5831L74.8091 16.0546L74.6378 15.0561L74.1771 12.3698L76.1288 10.4675L76.8542 9.7603L75.8517 9.61462L73.1545 9.22271L71.9484 6.77872L71.5 5.87022L71.0516 6.77872L69.8455 9.22271L67.1483 9.61462L66.1458 9.7603L66.8712 10.4675L68.8229 12.3698L68.3622 15.0561Z" stroke="black"/>
</svg>
